<?xml version="1.0" encoding="UTF-8" standalone="no"?>
<!-- Created with Inkscape (http://www.inkscape.org/) -->

<svg xmlns:cc="http://creativecommons.org/ns#" xmlns:dc="http://purl.org/dc/elements/1.1/"
    xmlns:inkscape="http://www.inkscape.org/namespaces/inkscape"
    xmlns:rdf="http://www.w3.org/1999/02/22-rdf-syntax-ns#"
    xmlns:sodipodi="http://sodipodi.sourceforge.net/DTD/sodipodi-0.dtd" height="24mm" id="svg1924"
    version="1.1" viewBox="0 0 40 24" width="40mm" xmlns="http://www.w3.org/2000/svg"
    inkscape:version="0.92.3 (2405546, 2018-03-11)" sodipodi:docname="ic_original_version_24dp.svg">
  <defs
     id="defs1918" />
  <sodipodi:namedview
     id="base"
     pagecolor="#ffffff"
     bordercolor="#666666"
     borderopacity="1.0"
     inkscape:pageopacity="0.0"
     inkscape:pageshadow="2"
     inkscape:zoom="5.6568543"
     inkscape:cx="53.792169"
     inkscape:cy="44.497485"
     inkscape:document-units="mm"
     inkscape:current-layer="layer1"
     showgrid="false"
     inkscape:showpageshadow="false"
     inkscape:window-width="1869"
     inkscape:window-height="1025"
     inkscape:window-x="51"
     inkscape:window-y="27"
     inkscape:window-maximized="1" />
  <metadata
     id="metadata1921">
    <rdf:RDF>
      <cc:Work
         rdf:about="">
        <dc:format>image/svg+xml</dc:format>
        <dc:type
           rdf:resource="http://purl.org/dc/dcmitype/StillImage" />
        <dc:title></dc:title>
      </cc:Work>
    </rdf:RDF>
  </metadata>
  <g
     inkscape:label="Calque 1"
     inkscape:groupmode="layer"
     id="layer1"
     transform="translate(0,-273)">
    <path
       inkscape:connector-curvature="0"
       style="overflow:visible;fill:#000000;stroke-width:0.1080404"
       d="M 11.857142,275 C 6.3962857,275 2,279.46 2,285 c 0,5.54 4.3962857,10 9.857142,10 H 28.142858 C 33.603714,295 38,290.54 38,285 c 0,-5.54 -4.396286,-10 -9.857142,-10 z m 6.045536,4.13044 c 1.97815,0 3.941352,1.59941 3.941352,5.86956 0,4.27014 -1.963202,5.86957 -3.941352,5.86957 -1.978149,0 -3.941517,-1.59943 -3.941517,-5.86957 0,-4.27015 1.963368,-5.86956 3.941517,-5.86956 z m 7.764342,0 c 0.713919,0 1.35342,0.19612 1.963226,0.55825 v 2.18784 c -0.446199,-0.39231 -0.996501,-0.72419 -1.606306,-0.72419 -0.684172,0 -1.115458,0.42242 -1.115458,1.11651 0,1.87102 3.376173,1.97673 3.376173,5.05486 0,2.0219 -1.14525,3.54586 -3.227512,3.54586 -0.624679,0 -1.398102,-0.19615 -1.903795,-0.57338 v -2.14266 c 0.520566,0.36214 1.02621,0.6036 1.680636,0.6036 0.713918,0 1.279185,-0.48281 1.279185,-1.23726 0,-0.87515 -0.684138,-1.20715 -1.308817,-1.65982 -1.279103,-0.87515 -2.067354,-1.72015 -2.067354,-3.37992 0,-1.79558 1.02624,-3.34969 2.930022,-3.34969 z m -20.3688615,0.18104 h 2.3797434 l 1.740234,7.40863 1.7253371,-7.40863 h 2.320144 l -3.108481,11.37704 H 8.5405707 Z m 23.6922995,0 h 5.711381 v 2.11243 h -1.755131 v 9.26461 h -2.216015 v -9.26461 h -1.740235 z m -11.08778,1.90116 c -1.472456,0 -1.576673,2.77641 -1.576673,3.78736 0,0.90533 0.104217,3.78736 1.576673,3.78736 1.472457,0 1.576508,-2.88203 1.576508,-3.78736 0,-1.01095 -0.104051,-3.78736 -1.576508,-3.78736 z"
       id="rect820"
       sodipodi:nodetypes="sssssssssssssccssssccsscsscccccccccccccccccsssss" />
  </g>
</svg>
