<?xml version="1.0" encoding="UTF-8" standalone="no"?>
<!-- Created with Inkscape (http://www.inkscape.org/) -->

<svg
   xmlns:dc="http://purl.org/dc/elements/1.1/"
   xmlns:cc="http://creativecommons.org/ns#"
   xmlns:rdf="http://www.w3.org/1999/02/22-rdf-syntax-ns#"
   xmlns:svg="http://www.w3.org/2000/svg"
   xmlns="http://www.w3.org/2000/svg"
   xmlns:sodipodi="http://sodipodi.sourceforge.net/DTD/sodipodi-0.dtd"
   xmlns:inkscape="http://www.inkscape.org/namespaces/inkscape"
   width="24mm"
   height="24mm"
   viewBox="0 0 24 24"
   version="1.1"
   id="svg827"
   inkscape:version="0.92.3 (2405546, 2018-03-11)"
   sodipodi:docname="ic_three_dimension_24dp.svg">
  <defs
     id="defs821" />
  <sodipodi:namedview
     id="base"
     pagecolor="#ffffff"
     bordercolor="#666666"
     borderopacity="1.0"
     inkscape:pageopacity="0.0"
     inkscape:pageshadow="2"
     inkscape:zoom="5.6"
     inkscape:cx="26.987655"
     inkscape:cy="44.88441"
     inkscape:document-units="mm"
     inkscape:current-layer="layer1"
     showgrid="false"
     inkscape:showpageshadow="false"
     inkscape:window-width="1869"
     inkscape:window-height="1025"
     inkscape:window-x="51"
     inkscape:window-y="27"
     inkscape:window-maximized="1" />
  <metadata
     id="metadata824">
    <rdf:RDF>
      <cc:Work
         rdf:about="">
        <dc:format>image/svg+xml</dc:format>
        <dc:type
           rdf:resource="http://purl.org/dc/dcmitype/StillImage" />
        <dc:title></dc:title>
      </cc:Work>
    </rdf:RDF>
  </metadata>
  <g
     inkscape:label="Calque 1"
     inkscape:groupmode="layer"
     id="layer1"
     transform="translate(0,-273)">
    <path
       inkscape:connector-curvature="0"
       style="fill:#000000;stroke-width:0.0881945"
       d="M 12.000086,275 C 6.4771754,274.99997 1.9999635,279.47718 2,285.00009 c 6.3e-5,5.52284 4.4772457,9.99994 10.000086,9.99991 5.522773,-6e-5 9.999851,-4.47714 9.999914,-9.99991 3.6e-5,-5.52284 -4.477071,-10.00003 -9.999914,-10.00009 z m -4.169602,4.04696 c 1.867049,0 2.922994,1.19366 2.922994,3.0148 0,1.10187 -0.306002,2.28023 -1.42317,2.72404 v 0.0307 c 1.285509,0.32138 1.775259,1.49977 1.775259,2.73937 0,2.11191 -1.300807,3.39738 -3.412714,3.39738 -1.943567,0 -3.121959,-1.28549 -3.030137,-3.21376 h 2.142507 l -0.01533,0.32126 c 0,0.38259 0.244821,0.90296 0.856968,0.90296 0.933525,0 0.994773,-0.94879 0.994773,-1.63746 0,-1.2855 -0.443931,-1.65287 -1.72944,-1.60696 v -1.98937 c 1.239598,0 1.74477,-0.24495 1.74477,-1.51516 0,-0.52032 -0.107125,-1.17839 -0.780487,-1.17839 -0.658058,0 -0.765328,0.6887 -0.765328,1.19372 v 0.22961 H 5.137106 c -0.09182,-1.85174 0.566167,-3.41271 2.693378,-3.41271 z m 6.675911,0.17122 c 1.180475,-0.0232 4.836057,0.23623 4.836057,5.87372 0,3.29029 -1.270183,5.67769 -4.866546,5.67769 h -2.035365 v -11.53901 z m 0.214285,2.0631 v 7.43762 c 1.836441,0.0918 2.341461,-2.20379 2.341461,-3.64233 0,-1.46916 -0.459109,-3.79529 -2.341461,-3.79529 z"
       id="circle3864"
       sodipodi:nodetypes="ccccccsccsscccssccssscccccsscccccsc" />
  </g>
</svg>
